<?xml version="1.0" encoding="UTF-8" standalone="no"?>
<!-- Page 1 -->

<svg
   xmlns:dc="http://purl.org/dc/elements/1.1/"
   xmlns:cc="http://creativecommons.org/ns#"
   xmlns:rdf="http://www.w3.org/1999/02/22-rdf-syntax-ns#"
   xmlns:svg="http://www.w3.org/2000/svg"
   xmlns="http://www.w3.org/2000/svg"
   xmlns:xlink="http://www.w3.org/1999/xlink"
   xmlns:sodipodi="http://sodipodi.sourceforge.net/DTD/sodipodi-0.dtd"
   xmlns:inkscape="http://www.inkscape.org/namespaces/inkscape"
   x="0"
   y="0"
   width="3465"
   height="2598"
   viewBox="0 0 3465 2598"
   version="1.1"
   style="display: block;margin-left: auto;margin-right: auto;"
   id="svg5415"
   sodipodi:docname="Screen Quiz.svg"
   inkscape:version="0.92.2 (5c3e80d, 2017-08-06)">
  <metadata
     id="metadata5419">
    <rdf:RDF>
      <cc:Work
         rdf:about="">
        <dc:format>image/svg+xml</dc:format>
        <dc:type
           rdf:resource="http://purl.org/dc/dcmitype/StillImage" />
      </cc:Work>
    </rdf:RDF>
  </metadata>
  <sodipodi:namedview
     pagecolor="#ffffff"
     bordercolor="#666666"
     borderopacity="1"
     objecttolerance="10"
     gridtolerance="10"
     guidetolerance="10"
     inkscape:pageopacity="0"
     inkscape:pageshadow="2"
     inkscape:window-width="1920"
     inkscape:window-height="1018"
     id="namedview5417"
     showgrid="false"
     inkscape:zoom="0.32755966"
     inkscape:cx="1444.5751"
     inkscape:cy="1378.2878"
     inkscape:window-x="-8"
     inkscape:window-y="-8"
     inkscape:window-maximized="1"
     inkscape:current-layer="svg5415" />
  <defs
     id="defs4565">
    <clipPath
       id="c0_1">
      <path
         d="M0,2598.6V0H3464.6V2598.6Z"
         id="path4560" />
    </clipPath>
    <style
       type="text/css"
       id="style4563"><![CDATA[

.g0_1{
fill: #445ABA;
}
.g1_1{
fill: #FDFAF4;
}
.g2_1{
fill: #FB5B09;
}
.g3_1{
fill: none;
stroke: #000000;
stroke-width: 0.44000003;
stroke-linecap: round;
stroke-linejoin: round;
}
.g4_1{
fill: none;
stroke: #FFFFFF;
stroke-width: 0.55;
stroke-linecap: round;
stroke-linejoin: round;
}
.g5_1{
fill: none;
stroke: #3C3C3C;
stroke-width: 0.36666667;
stroke-linecap: round;
stroke-linejoin: round;
stroke-opacity: 0.764706;
}

.s1_1{
font-size: 73.33px;
font-family: PressroomW03-Regular_i;
fill: TRANSPARENT;
}
.s2_1{
font-size: 18.33px;
font-family: HelveticaNeue_r;
fill: TRANSPARENT;
}
text::-moz-selection {
	color: transparent;
	background: rgba(0, 106, 173, 0.4);
}
text::selection {
	color: transparent;
	background: rgba(0, 106, 173, 0.4);
}

]]></style>
  </defs>
  <path
     d="M0,0 L0,2598 L3465,2598 L3465,0 Z "
     fill="#FFFFFF"
     stroke="none"
     id="path4567" />
  <g
     clip-path="url(#c0_1)"
     id="g4571">
    <path
       fill-rule="evenodd"
       d="M0,0H3464.6V2598.6H0V0Z"
       class="g0_1"
       id="path4569" />
  </g>
  <path
     fill-rule="evenodd"
     d="M539.1,2122.1H2925.5c34.7,0,62.7,-28.1,62.7,-62.7V539.1c0,-34.6,-28,-62.6,-62.7,-62.6H539.1c-34.6,0,-62.7,28,-62.7,62.6V2059.4c0,34.6,28.1,62.7,62.7,62.7Z"
     class="g1_1"
     id="path4573" />
  <path
     fill-rule="evenodd"
     d="M2988.2,1137.3v0c-4,-31.3,-30.6,-54.8,-62.2,-54.8H1732.3v519.8H2988.2v-465Z"
     class="g2_1"
     id="path4575" />
  <path
     fill-rule="evenodd"
     d="M538.6,1082.5v0c-31.6,0,-58.2,23.5,-62.2,54.8v465H1732.3V1082.5H538.6Z"
     class="g2_1"
     id="path4577" />
  <path
     fill-rule="evenodd"
     d="M476.4,1602.3v457.1c0,16.6,6.6,32.6,18.4,44.4c11.7,11.7,27.7,18.3,44.3,18.3H1732.3V1602.3H476.4Z"
     class="g2_1"
     id="path4579" />
  <path
     fill-rule="evenodd"
     d="M2925.5,2122.1v0c34.7,0,62.7,-28.1,62.7,-62.7V1602.3H1732.3v519.8H2925.5Z"
     class="g2_1"
     id="path4581" />
  <g
     clip-path="url(#c0_1)"
     id="g4653">
    <path
       d="M0,0H3464.6V2598.6H0V0Z"
       class="g3_1"
       id="path4583" />
    <g
       fill="#000000"
       id="g4651">
      <use
         xlink:href="#f0_8"
         transform="matrix(48,0,0,48,779.5,719.4)"
         id="use4585" />
      <use
         xlink:href="#f0_9"
         transform="matrix(48,0,0,48,833.8,719.4)"
         id="use4587" />
      <use
         xlink:href="#f0_f"
         transform="matrix(48,0,0,48,869.7,719.4)"
         id="use4589" />
      <use
         xlink:href="#f0_f"
         transform="matrix(48,0,0,48,891.7,719.4)"
         id="use4591" />
      <use
         xlink:href="#f0_e"
         transform="matrix(48,0,0,48,913.7,719.4)"
         id="use4593" />
      <use
         xlink:href="#f0_9"
         transform="matrix(48,0,0,48,935.7,719.4)"
         id="use4595" />
      <use
         xlink:href="#f0_c"
         transform="matrix(48,0,0,48,990,719.4)"
         id="use4597" />
      <use
         xlink:href="#f0_m"
         transform="matrix(48,0,0,48,1024.1,719.4)"
         id="use4599" />
      <use
         xlink:href="#f0_n"
         transform="matrix(48,0,0,48,1051.6,719.4)"
         id="use4601" />
      <use
         xlink:href="#f0_i"
         transform="matrix(48,0,0,48,1093.8,719.4)"
         id="use4603" />
      <use
         xlink:href="#f0_g"
         transform="matrix(48,0,0,48,1131.2,719.4)"
         id="use4605" />
      <use
         xlink:href="#f0_h"
         transform="matrix(48,0,0,48,1195.7,719.4)"
         id="use4607" />
      <use
         xlink:href="#f0_e"
         transform="matrix(48,0,0,48,1239.3,719.4)"
         id="use4609" />
      <use
         xlink:href="#f0_m"
         transform="matrix(48,0,0,48,1261.3,719.4)"
         id="use4611" />
      <use
         xlink:href="#f0_b"
         transform="matrix(48,0,0,48,1307.2,719.4)"
         id="use4613" />
      <use
         xlink:href="#f0_e"
         transform="matrix(48,0,0,48,1345.7,719.4)"
         id="use4615" />
      <use
         xlink:href="#f0_p"
         transform="matrix(48,0,0,48,1367.7,719.4)"
         id="use4617" />
      <use
         xlink:href="#f0_e"
         transform="matrix(48,0,0,48,1404.3,719.4)"
         id="use4619" />
      <use
         xlink:href="#f0_m"
         transform="matrix(48,0,0,48,1426.3,719.4)"
         id="use4621" />
      <use
         xlink:href="#f0_9"
         transform="matrix(48,0,0,48,1453.8,719.4)"
         id="use4623" />
      <use
         xlink:href="#f0_e"
         transform="matrix(48,0,0,48,1508.1,719.4)"
         id="use4625" />
      <use
         xlink:href="#f0_h"
         transform="matrix(48,0,0,48,1530.1,719.4)"
         id="use4627" />
      <use
         xlink:href="#f0_j"
         transform="matrix(48,0,0,48,1592.1,719.4)"
         id="use4629" />
      <use
         xlink:href="#f0_9"
         transform="matrix(48,0,0,48,1631.3,719.4)"
         id="use4631" />
      <use
         xlink:href="#f0_l"
         transform="matrix(48,0,0,48,1667.2,719.4)"
         id="use4633" />
      <use
         xlink:href="#f0_n"
         transform="matrix(48,0,0,48,1694.4,719.4)"
         id="use4635" />
      <use
         xlink:href="#f0_c"
         transform="matrix(48,0,0,48,1718.2,719.4)"
         id="use4637" />
      <use
         xlink:href="#f0_m"
         transform="matrix(48,0,0,48,1752.3,719.4)"
         id="use4639" />
      <use
         xlink:href="#f0_n"
         transform="matrix(48,0,0,48,1798.1,719.4)"
         id="use4641" />
      <use
         xlink:href="#f0_l"
         transform="matrix(48,0,0,48,1822,719.4)"
         id="use4643" />
      <use
         xlink:href="#f0_c"
         transform="matrix(48,0,0,48,1849.1,719.4)"
         id="use4645" />
      <use
         xlink:href="#f0_m"
         transform="matrix(48,0,0,48,1883.2,719.4)"
         id="use4647" />
      <use
         xlink:href="#f0_3"
         transform="matrix(48,0,0,48,1910.7,719.4)"
         id="use4649" />
    </g>
  </g>
  <g
     clip-path="url(#c0_1)"
     id="g4671">
    <g
       fill="#000000"
       id="g4669">
      <use
         xlink:href="#f0_k"
         transform="matrix(48.2,0,0,48,1947.4,719.4)"
         id="use4657" />
      <use
         xlink:href="#f0_o"
         transform="matrix(48.2,0,0,48,1986.1,719.4)"
         id="use4659" />
      <use
         xlink:href="#f0_9"
         transform="matrix(48.2,0,0,48,2027.3,719.4)"
         id="use4661" />
      <use
         xlink:href="#f0_l"
         transform="matrix(48.2,0,0,48,2063.4,719.4)"
         id="use4663" />
      <use
         xlink:href="#f0_o"
         transform="matrix(48.2,0,0,48,2090.7,719.4)"
         id="use4665" />
      <use
         xlink:href="#f0_g"
         transform="matrix(48.2,0,0,48,2131.9,719.4)"
         id="use4667" />
    </g>
  </g>
  <g
     clip-path="url(#c0_1)"
     id="g4703">
    <g
       fill="#000000"
       id="g4701">
      <use
         xlink:href="#f0_o"
         transform="matrix(48,0,0,48,2215,719.4)"
         id="use4675" />
      <use
         xlink:href="#f0_h"
         transform="matrix(48,0,0,48,2256.1,719.4)"
         id="use4677" />
      <use
         xlink:href="#f0_9"
         transform="matrix(48,0,0,48,2299.7,719.4)"
         id="use4679" />
      <use
         xlink:href="#f0_g"
         transform="matrix(48,0,0,48,2335.7,719.4)"
         id="use4681" />
      <use
         xlink:href="#f0_e"
         transform="matrix(48,0,0,48,2418.5,719.4)"
         id="use4683" />
      <use
         xlink:href="#f0_h"
         transform="matrix(48,0,0,48,2440.5,719.4)"
         id="use4685" />
      <use
         xlink:href="#f0_a"
         transform="matrix(48,0,0,48,2484.2,719.4)"
         id="use4687" />
      <use
         xlink:href="#f0_i"
         transform="matrix(48,0,0,48,2517.2,719.4)"
         id="use4689" />
      <use
         xlink:href="#f0_f"
         transform="matrix(48,0,0,48,2554.6,719.4)"
         id="use4691" />
      <use
         xlink:href="#f0_o"
         transform="matrix(48,0,0,48,2576.6,719.4)"
         id="use4693" />
      <use
         xlink:href="#f0_h"
         transform="matrix(48,0,0,48,2617.6,719.4)"
         id="use4695" />
      <use
         xlink:href="#f0_n"
         transform="matrix(48,0,0,48,2661.3,719.4)"
         id="use4697" />
      <use
         xlink:href="#f0_6"
         transform="matrix(48,0,0,48,705.8,805.9)"
         id="use4699" />
    </g>
  </g>
  <g
     clip-path="url(#c0_1)"
     id="g4731">
    <g
       fill="#000000"
       id="g4729">
      <use
         xlink:href="#f0_c"
         transform="matrix(48,0,0,48,751.7,805.9)"
         id="use4707" />
      <use
         xlink:href="#f0_f"
         transform="matrix(48,0,0,48,785.8,805.9)"
         id="use4709" />
      <use
         xlink:href="#f0_d"
         transform="matrix(48,0,0,48,807.8,805.9)"
         id="use4711" />
      <use
         xlink:href="#f0_9"
         transform="matrix(48,0,0,48,842.6,805.9)"
         id="use4713" />
      <use
         xlink:href="#f0_c"
         transform="matrix(48,0,0,48,878.5,805.9)"
         id="use4715" />
      <use
         xlink:href="#f0_3"
         transform="matrix(48,0,0,48,912.6,805.9)"
         id="use4717" />
      <use
         xlink:href="#f0_9"
         transform="matrix(48,0,0,48,949.3,805.9)"
         id="use4719" />
      <use
         xlink:href="#f0_f"
         transform="matrix(48,0,0,48,985.2,805.9)"
         id="use4721" />
      <use
         xlink:href="#f0_e"
         transform="matrix(48,0,0,48,1007.2,805.9)"
         id="use4723" />
      <use
         xlink:href="#f0_9"
         transform="matrix(48,0,0,48,1029.2,805.9)"
         id="use4725" />
      <use
         xlink:href="#f0_g"
         transform="matrix(48,0,0,48,1065.2,805.9)"
         id="use4727" />
    </g>
  </g>
  <g
     clip-path="url(#c0_1)"
     id="g4755">
    <g
       fill="#000000"
       id="g4753">
      <use
         xlink:href="#f0_5"
         transform="matrix(47.5,0,0,48,1147.9,805.9)"
         id="use4735" />
      <use
         xlink:href="#f0_k"
         transform="matrix(47.5,0,0,48,1198.7,805.9)"
         id="use4737" />
      <use
         xlink:href="#f0_o"
         transform="matrix(47.5,0,0,48,1236.8,805.9)"
         id="use4739" />
      <use
         xlink:href="#f0_e"
         transform="matrix(47.5,0,0,48,1277.5,805.9)"
         id="use4741" />
      <use
         xlink:href="#f0_n"
         transform="matrix(47.5,0,0,48,1299.2,805.9)"
         id="use4743" />
      <use
         xlink:href="#f0_9"
         transform="matrix(47.5,0,0,48,1322.8,805.9)"
         id="use4745" />
      <use
         xlink:href="#f0_h"
         transform="matrix(47.5,0,0,48,1358.4,805.9)"
         id="use4747" />
      <use
         xlink:href="#f0_e"
         transform="matrix(47.5,0,0,48,1401.6,805.9)"
         id="use4749" />
      <use
         xlink:href="#f0_3"
         transform="matrix(48,0,0,48,1423.4,805.9)"
         id="use4751" />
    </g>
  </g>
  <g
     clip-path="url(#c0_1)"
     id="g4781">
    <g
       fill="#000000"
       id="g4779">
      <use
         xlink:href="#f0_n"
         transform="matrix(48,0,0,48,1460.1,805.9)"
         id="use4759" />
      <use
         xlink:href="#f0_c"
         transform="matrix(48,0,0,48,1483.9,805.9)"
         id="use4761" />
      <use
         xlink:href="#f0_l"
         transform="matrix(48,0,0,48,1518,805.9)"
         id="use4763" />
      <use
         xlink:href="#f0_n"
         transform="matrix(48,0,0,48,1545.1,805.9)"
         id="use4765" />
      <use
         xlink:href="#f0_e"
         transform="matrix(48,0,0,48,1569,805.9)"
         id="use4767" />
      <use
         xlink:href="#f0_9"
         transform="matrix(48,0,0,48,1591,805.9)"
         id="use4769" />
      <use
         xlink:href="#f0_g"
         transform="matrix(48,0,0,48,1626.9,805.9)"
         id="use4771" />
      <use
         xlink:href="#f0_k"
         transform="matrix(48,0,0,48,1709.8,805.9)"
         id="use4773" />
      <use
         xlink:href="#f0_o"
         transform="matrix(48,0,0,48,1748.3,805.9)"
         id="use4775" />
      <use
         xlink:href="#f0_e"
         transform="matrix(48,0,0,48,1789.3,805.9)"
         id="use4777" />
    </g>
  </g>
  <text
     x="1753.1947"
     y="833.27979"
     class="s1_1"
     id="text4803"
     style="font-size:66.19919586px;font-family:PressroomW03-Regular_i;stroke-width:0.90275735"
     transform="scale(1.0365264,0.96476076)">ipsorum</text>
  <g
     clip-path="url(#c0_1)"
     id="g4847">
    <g
       fill="#000000"
       id="g4845">
      <use
         xlink:href="#f0_f"
         transform="matrix(48,0,0,48,2108,805.9)"
         id="use4805" />
      <use
         xlink:href="#f0_e"
         transform="matrix(48,0,0,48,2130,805.9)"
         id="use4807" />
      <use
         xlink:href="#f0_h"
         transform="matrix(48,0,0,48,2152,805.9)"
         id="use4809" />
      <use
         xlink:href="#f0_d"
         transform="matrix(48,0,0,48,2195.6,805.9)"
         id="use4811" />
      <use
         xlink:href="#f0_o"
         transform="matrix(48,0,0,48,2230.4,805.9)"
         id="use4813" />
      <use
         xlink:href="#f0_9"
         transform="matrix(48,0,0,48,2271.5,805.9)"
         id="use4815" />
      <use
         xlink:href="#f0_7"
         transform="matrix(48,0,0,48,2325.8,805.9)"
         id="use4817" />
      <use
         xlink:href="#f0_c"
         transform="matrix(48,0,0,48,2377.1,805.9)"
         id="use4819" />
      <use
         xlink:href="#f0_f"
         transform="matrix(48,0,0,48,2411.2,805.9)"
         id="use4821" />
      <use
         xlink:href="#f0_n"
         transform="matrix(48,0,0,48,2433.2,805.9)"
         id="use4823" />
      <use
         xlink:href="#f0_9"
         transform="matrix(48,0,0,48,2457,805.9)"
         id="use4825" />
      <use
         xlink:href="#f0_c"
         transform="matrix(48,0,0,48,2493,805.9)"
         id="use4827" />
      <use
         xlink:href="#f0_3"
         transform="matrix(48,0,0,48,2527.1,805.9)"
         id="use4829" />
      <use
         xlink:href="#f0_h"
         transform="matrix(48,0,0,48,2563.7,805.9)"
         id="use4831" />
      <use
         xlink:href="#f0_i"
         transform="matrix(48,0,0,48,2607.4,805.9)"
         id="use4833" />
      <use
         xlink:href="#f0_m"
         transform="matrix(48,0,0,48,2644.8,805.9)"
         id="use4835" />
      <use
         xlink:href="#f0_n"
         transform="matrix(48,0,0,48,2672.3,805.9)"
         id="use4837" />
      <use
         xlink:href="#f0_l"
         transform="matrix(48,0,0,48,2696.1,805.9)"
         id="use4839" />
      <use
         xlink:href="#f0_9"
         transform="matrix(48,0,0,48,2723.2,805.9)"
         id="use4841" />
      <use
         xlink:href="#f0_8"
         transform="matrix(48,0,0,48,1447.6,892.5)"
         id="use4843" />
    </g>
  </g>
  <g
     clip-path="url(#c0_1)"
     id="g4885">
    <g
       fill="#000000"
       id="g4883">
      <use
         xlink:href="#f0_9"
         transform="matrix(48,0,0,48,1501.9,892.5)"
         id="use4851" />
      <use
         xlink:href="#f0_f"
         transform="matrix(48,0,0,48,1537.8,892.5)"
         id="use4853" />
      <use
         xlink:href="#f0_f"
         transform="matrix(48,0,0,48,1559.8,892.5)"
         id="use4855" />
      <use
         xlink:href="#f0_e"
         transform="matrix(48,0,0,48,1581.8,892.5)"
         id="use4857" />
      <use
         xlink:href="#f0_9"
         transform="matrix(48,0,0,48,1622.1,892.5)"
         id="use4859" />
      <use
         xlink:href="#f0_j"
         transform="matrix(48,0,0,48,1658.1,892.5)"
         id="use4861" />
      <use
         xlink:href="#f0_j"
         transform="matrix(48,0,0,48,1697.3,892.5)"
         id="use4863" />
      <use
         xlink:href="#f0_c"
         transform="matrix(48,0,0,48,1736.5,892.5)"
         id="use4865" />
      <use
         xlink:href="#f0_f"
         transform="matrix(48,0,0,48,1770.6,892.5)"
         id="use4867" />
      <use
         xlink:href="#f0_f"
         transform="matrix(48,0,0,48,1792.6,892.5)"
         id="use4869" />
      <use
         xlink:href="#f0_9"
         transform="matrix(48,0,0,48,1814.6,892.5)"
         id="use4871" />
      <use
         xlink:href="#f0_h"
         transform="matrix(48,0,0,48,1850.6,892.5)"
         id="use4873" />
      <use
         xlink:href="#f0_n"
         transform="matrix(48,0,0,48,1894.2,892.5)"
         id="use4875" />
      <use
         xlink:href="#f0_o"
         transform="matrix(48,0,0,48,1918,892.5)"
         id="use4877" />
      <use
         xlink:href="#f0_l"
         transform="matrix(48,0,0,48,1959.1,892.5)"
         id="use4879" />
      <use
         xlink:href="#f0_4"
         transform="matrix(48,0,0,48,1986.2,892.5)"
         id="use4881" />
    </g>
  </g>
  <path
     d="M476.3,1602.3h2512M1732.5,1082.4V2122.3"
     class="g4_1"
     id="path4889" />
  <g
     clip-path="url(#c0_1)"
     id="g4951">
    <g
       fill="#FFFFFF"
       id="g4949">
      <use
         xlink:href="#f0_8"
         transform="matrix(48,0,0,48,604.3,1325.5)"
         id="use4891" />
      <use
         xlink:href="#f0_9"
         transform="matrix(48,0,0,48,658.5,1325.5)"
         id="use4893" />
      <use
         xlink:href="#f0_f"
         transform="matrix(48,0,0,48,694.5,1325.5)"
         id="use4895" />
      <use
         xlink:href="#f0_f"
         transform="matrix(48,0,0,48,716.5,1325.5)"
         id="use4897" />
      <use
         xlink:href="#f0_e"
         transform="matrix(48,0,0,48,738.5,1325.5)"
         id="use4899" />
      <use
         xlink:href="#f0_9"
         transform="matrix(48,0,0,48,760.5,1325.5)"
         id="use4901" />
      <use
         xlink:href="#f0_c"
         transform="matrix(48,0,0,48,814.7,1325.5)"
         id="use4903" />
      <use
         xlink:href="#f0_m"
         transform="matrix(48,0,0,48,848.8,1325.5)"
         id="use4905" />
      <use
         xlink:href="#f0_n"
         transform="matrix(48,0,0,48,876.3,1325.5)"
         id="use4907" />
      <use
         xlink:href="#f0_i"
         transform="matrix(48,0,0,48,918.5,1325.5)"
         id="use4909" />
      <use
         xlink:href="#f0_g"
         transform="matrix(48,0,0,48,955.9,1325.5)"
         id="use4911" />
      <use
         xlink:href="#f0_h"
         transform="matrix(48,0,0,48,1020.4,1325.5)"
         id="use4913" />
      <use
         xlink:href="#f0_e"
         transform="matrix(48,0,0,48,1064.1,1325.5)"
         id="use4915" />
      <use
         xlink:href="#f0_m"
         transform="matrix(48,0,0,48,1086.1,1325.5)"
         id="use4917" />
      <use
         xlink:href="#f0_b"
         transform="matrix(48,0,0,48,1131.9,1325.5)"
         id="use4919" />
      <use
         xlink:href="#f0_e"
         transform="matrix(48,0,0,48,1170.4,1325.5)"
         id="use4921" />
      <use
         xlink:href="#f0_p"
         transform="matrix(48,0,0,48,1192.4,1325.5)"
         id="use4923" />
      <use
         xlink:href="#f0_e"
         transform="matrix(48,0,0,48,1229.1,1325.5)"
         id="use4925" />
      <use
         xlink:href="#f0_m"
         transform="matrix(48,0,0,48,1251.1,1325.5)"
         id="use4927" />
      <use
         xlink:href="#f0_9"
         transform="matrix(48,0,0,48,1278.6,1325.5)"
         id="use4929" />
      <use
         xlink:href="#f0_e"
         transform="matrix(48,0,0,48,1332.8,1325.5)"
         id="use4931" />
      <use
         xlink:href="#f0_h"
         transform="matrix(48,0,0,48,1354.8,1325.5)"
         id="use4933" />
      <use
         xlink:href="#f0_j"
         transform="matrix(48,0,0,48,1416.8,1325.5)"
         id="use4935" />
      <use
         xlink:href="#f0_9"
         transform="matrix(48,0,0,48,1456,1325.5)"
         id="use4937" />
      <use
         xlink:href="#f0_l"
         transform="matrix(48,0,0,48,1492,1325.5)"
         id="use4939" />
      <use
         xlink:href="#f0_n"
         transform="matrix(48,0,0,48,1519.1,1325.5)"
         id="use4941" />
      <use
         xlink:href="#f0_c"
         transform="matrix(48,0,0,48,1542.9,1325.5)"
         id="use4943" />
      <use
         xlink:href="#f0_m"
         transform="matrix(48,0,0,48,1577,1325.5)"
         id="use4945" />
      <use
         xlink:href="#f0_n"
         transform="matrix(48,0,0,48,660.7,1412)"
         id="use4947" />
    </g>
  </g>
  <g
     clip-path="url(#c0_1)"
     id="g4965">
    <g
       fill="#FFFFFF"
       id="g4963">
      <use
         xlink:href="#f0_l"
         transform="matrix(48,0,0,48,684.6,1412)"
         id="use4955" />
      <use
         xlink:href="#f0_c"
         transform="matrix(48,0,0,48,711.7,1412)"
         id="use4957" />
      <use
         xlink:href="#f0_m"
         transform="matrix(48,0,0,48,745.8,1412)"
         id="use4959" />
      <use
         xlink:href="#f0_3"
         transform="matrix(48,0,0,48,773.3,1412)"
         id="use4961" />
    </g>
  </g>
  <g
     clip-path="url(#c0_1)"
     id="g4983">
    <g
       fill="#FFFFFF"
       id="g4981">
      <use
         xlink:href="#f0_k"
         transform="matrix(48.2,0,0,48,810,1412)"
         id="use4969" />
      <use
         xlink:href="#f0_o"
         transform="matrix(48.2,0,0,48,848.7,1412)"
         id="use4971" />
      <use
         xlink:href="#f0_9"
         transform="matrix(48.2,0,0,48,889.9,1412)"
         id="use4973" />
      <use
         xlink:href="#f0_l"
         transform="matrix(48.2,0,0,48,926,1412)"
         id="use4975" />
      <use
         xlink:href="#f0_o"
         transform="matrix(48.2,0,0,48,953.3,1412)"
         id="use4977" />
      <use
         xlink:href="#f0_g"
         transform="matrix(48.2,0,0,48,994.5,1412)"
         id="use4979" />
    </g>
  </g>
  <g
     clip-path="url(#c0_1)"
     id="g5015">
    <g
       fill="#FFFFFF"
       id="g5013">
      <use
         xlink:href="#f0_o"
         transform="matrix(48,0,0,48,1077.6,1412)"
         id="use4987" />
      <use
         xlink:href="#f0_h"
         transform="matrix(48,0,0,48,1118.7,1412)"
         id="use4989" />
      <use
         xlink:href="#f0_9"
         transform="matrix(48,0,0,48,1162.3,1412)"
         id="use4991" />
      <use
         xlink:href="#f0_g"
         transform="matrix(48,0,0,48,1198.3,1412)"
         id="use4993" />
      <use
         xlink:href="#f0_e"
         transform="matrix(48,0,0,48,1281.1,1412)"
         id="use4995" />
      <use
         xlink:href="#f0_h"
         transform="matrix(48,0,0,48,1303.1,1412)"
         id="use4997" />
      <use
         xlink:href="#f0_a"
         transform="matrix(48,0,0,48,1346.8,1412)"
         id="use4999" />
      <use
         xlink:href="#f0_i"
         transform="matrix(48,0,0,48,1379.8,1412)"
         id="use5001" />
      <use
         xlink:href="#f0_f"
         transform="matrix(48,0,0,48,1417.2,1412)"
         id="use5003" />
      <use
         xlink:href="#f0_o"
         transform="matrix(48,0,0,48,1439.2,1412)"
         id="use5005" />
      <use
         xlink:href="#f0_h"
         transform="matrix(48,0,0,48,1480.2,1412)"
         id="use5007" />
      <use
         xlink:href="#f0_n"
         transform="matrix(48,0,0,48,1523.9,1412)"
         id="use5009" />
      <use
         xlink:href="#f0_8"
         transform="matrix(48,0,0,48,1860.5,1368.8)"
         id="use5011" />
    </g>
  </g>
  <g
     clip-path="url(#c0_1)"
     id="g5077">
    <g
       fill="#FFFFFF"
       id="g5075">
      <use
         xlink:href="#f0_9"
         transform="matrix(48,0,0,48,1914.7,1368.8)"
         id="use5019" />
      <use
         xlink:href="#f0_f"
         transform="matrix(48,0,0,48,1950.7,1368.8)"
         id="use5021" />
      <use
         xlink:href="#f0_f"
         transform="matrix(48,0,0,48,1972.7,1368.8)"
         id="use5023" />
      <use
         xlink:href="#f0_e"
         transform="matrix(48,0,0,48,1994.7,1368.8)"
         id="use5025" />
      <use
         xlink:href="#f0_9"
         transform="matrix(48,0,0,48,2016.7,1368.8)"
         id="use5027" />
      <use
         xlink:href="#f0_c"
         transform="matrix(48,0,0,48,2070.9,1368.8)"
         id="use5029" />
      <use
         xlink:href="#f0_m"
         transform="matrix(48,0,0,48,2105,1368.8)"
         id="use5031" />
      <use
         xlink:href="#f0_n"
         transform="matrix(48,0,0,48,2132.5,1368.8)"
         id="use5033" />
      <use
         xlink:href="#f0_i"
         transform="matrix(48,0,0,48,2174.7,1368.8)"
         id="use5035" />
      <use
         xlink:href="#f0_g"
         transform="matrix(48,0,0,48,2212.1,1368.8)"
         id="use5037" />
      <use
         xlink:href="#f0_h"
         transform="matrix(48,0,0,48,2276.6,1368.8)"
         id="use5039" />
      <use
         xlink:href="#f0_e"
         transform="matrix(48,0,0,48,2320.3,1368.8)"
         id="use5041" />
      <use
         xlink:href="#f0_m"
         transform="matrix(48,0,0,48,2342.3,1368.8)"
         id="use5043" />
      <use
         xlink:href="#f0_b"
         transform="matrix(48,0,0,48,2388.1,1368.8)"
         id="use5045" />
      <use
         xlink:href="#f0_e"
         transform="matrix(48,0,0,48,2426.6,1368.8)"
         id="use5047" />
      <use
         xlink:href="#f0_p"
         transform="matrix(48,0,0,48,2448.6,1368.8)"
         id="use5049" />
      <use
         xlink:href="#f0_e"
         transform="matrix(48,0,0,48,2485.3,1368.8)"
         id="use5051" />
      <use
         xlink:href="#f0_m"
         transform="matrix(48,0,0,48,2507.3,1368.8)"
         id="use5053" />
      <use
         xlink:href="#f0_9"
         transform="matrix(48,0,0,48,2534.8,1368.8)"
         id="use5055" />
      <use
         xlink:href="#f0_e"
         transform="matrix(48,0,0,48,2589,1368.8)"
         id="use5057" />
      <use
         xlink:href="#f0_h"
         transform="matrix(48,0,0,48,2611,1368.8)"
         id="use5059" />
      <use
         xlink:href="#f0_j"
         transform="matrix(48,0,0,48,2673,1368.8)"
         id="use5061" />
      <use
         xlink:href="#f0_9"
         transform="matrix(48,0,0,48,2712.2,1368.8)"
         id="use5063" />
      <use
         xlink:href="#f0_l"
         transform="matrix(48,0,0,48,2748.2,1368.8)"
         id="use5065" />
      <use
         xlink:href="#f0_n"
         transform="matrix(48,0,0,48,2775.3,1368.8)"
         id="use5067" />
      <use
         xlink:href="#f0_c"
         transform="matrix(48,0,0,48,2799.1,1368.8)"
         id="use5069" />
      <use
         xlink:href="#f0_m"
         transform="matrix(48,0,0,48,2833.2,1368.8)"
         id="use5071" />
      <use
         xlink:href="#f0_8"
         transform="matrix(48,0,0,48,849.9,1888.7)"
         id="use5073" />
    </g>
  </g>
  <g
     clip-path="url(#c0_1)"
     id="g5111">
    <g
       fill="#FFFFFF"
       id="g5109">
      <use
         xlink:href="#f0_9"
         transform="matrix(48,0,0,48,904.2,1888.7)"
         id="use5081" />
      <use
         xlink:href="#f0_f"
         transform="matrix(48,0,0,48,940.1,1888.7)"
         id="use5083" />
      <use
         xlink:href="#f0_f"
         transform="matrix(48,0,0,48,962.1,1888.7)"
         id="use5085" />
      <use
         xlink:href="#f0_e"
         transform="matrix(48,0,0,48,984.1,1888.7)"
         id="use5087" />
      <use
         xlink:href="#f0_9"
         transform="matrix(48,0,0,48,1006.1,1888.7)"
         id="use5089" />
      <use
         xlink:href="#f0_c"
         transform="matrix(48,0,0,48,1060.4,1888.7)"
         id="use5091" />
      <use
         xlink:href="#f0_m"
         transform="matrix(48,0,0,48,1094.5,1888.7)"
         id="use5093" />
      <use
         xlink:href="#f0_n"
         transform="matrix(48,0,0,48,1122,1888.7)"
         id="use5095" />
      <use
         xlink:href="#f0_i"
         transform="matrix(48,0,0,48,1164.2,1888.7)"
         id="use5097" />
      <use
         xlink:href="#f0_g"
         transform="matrix(48,0,0,48,1201.6,1888.7)"
         id="use5099" />
      <use
         xlink:href="#f0_h"
         transform="matrix(48,0,0,48,1266.1,1888.7)"
         id="use5101" />
      <use
         xlink:href="#f0_e"
         transform="matrix(48,0,0,48,1309.7,1888.7)"
         id="use5103" />
      <use
         xlink:href="#f0_m"
         transform="matrix(48,0,0,48,1331.7,1888.7)"
         id="use5105" />
      <use
         xlink:href="#f0_8"
         transform="matrix(48,0,0,48,1860.5,1845.4)"
         id="use5107" />
    </g>
  </g>
  <g
     clip-path="url(#c0_1)"
     id="g5173">
    <g
       fill="#FFFFFF"
       id="g5171">
      <use
         xlink:href="#f0_9"
         transform="matrix(48,0,0,48,1914.7,1845.4)"
         id="use5115" />
      <use
         xlink:href="#f0_f"
         transform="matrix(48,0,0,48,1950.7,1845.4)"
         id="use5117" />
      <use
         xlink:href="#f0_f"
         transform="matrix(48,0,0,48,1972.7,1845.4)"
         id="use5119" />
      <use
         xlink:href="#f0_e"
         transform="matrix(48,0,0,48,1994.7,1845.4)"
         id="use5121" />
      <use
         xlink:href="#f0_9"
         transform="matrix(48,0,0,48,2016.7,1845.4)"
         id="use5123" />
      <use
         xlink:href="#f0_c"
         transform="matrix(48,0,0,48,2070.9,1845.4)"
         id="use5125" />
      <use
         xlink:href="#f0_m"
         transform="matrix(48,0,0,48,2105,1845.4)"
         id="use5127" />
      <use
         xlink:href="#f0_n"
         transform="matrix(48,0,0,48,2132.5,1845.4)"
         id="use5129" />
      <use
         xlink:href="#f0_i"
         transform="matrix(48,0,0,48,2174.7,1845.4)"
         id="use5131" />
      <use
         xlink:href="#f0_g"
         transform="matrix(48,0,0,48,2212.1,1845.4)"
         id="use5133" />
      <use
         xlink:href="#f0_h"
         transform="matrix(48,0,0,48,2276.6,1845.4)"
         id="use5135" />
      <use
         xlink:href="#f0_e"
         transform="matrix(48,0,0,48,2320.3,1845.4)"
         id="use5137" />
      <use
         xlink:href="#f0_m"
         transform="matrix(48,0,0,48,2342.3,1845.4)"
         id="use5139" />
      <use
         xlink:href="#f0_b"
         transform="matrix(48,0,0,48,2388.1,1845.4)"
         id="use5141" />
      <use
         xlink:href="#f0_e"
         transform="matrix(48,0,0,48,2426.6,1845.4)"
         id="use5143" />
      <use
         xlink:href="#f0_p"
         transform="matrix(48,0,0,48,2448.6,1845.4)"
         id="use5145" />
      <use
         xlink:href="#f0_e"
         transform="matrix(48,0,0,48,2485.3,1845.4)"
         id="use5147" />
      <use
         xlink:href="#f0_m"
         transform="matrix(48,0,0,48,2507.3,1845.4)"
         id="use5149" />
      <use
         xlink:href="#f0_9"
         transform="matrix(48,0,0,48,2534.8,1845.4)"
         id="use5151" />
      <use
         xlink:href="#f0_e"
         transform="matrix(48,0,0,48,2589,1845.4)"
         id="use5153" />
      <use
         xlink:href="#f0_h"
         transform="matrix(48,0,0,48,2611,1845.4)"
         id="use5155" />
      <use
         xlink:href="#f0_j"
         transform="matrix(48,0,0,48,2673,1845.4)"
         id="use5157" />
      <use
         xlink:href="#f0_9"
         transform="matrix(48,0,0,48,2712.2,1845.4)"
         id="use5159" />
      <use
         xlink:href="#f0_l"
         transform="matrix(48,0,0,48,2748.2,1845.4)"
         id="use5161" />
      <use
         xlink:href="#f0_n"
         transform="matrix(48,0,0,48,2775.3,1845.4)"
         id="use5163" />
      <use
         xlink:href="#f0_c"
         transform="matrix(48,0,0,48,2799.1,1845.4)"
         id="use5165" />
      <use
         xlink:href="#f0_m"
         transform="matrix(48,0,0,48,2833.2,1845.4)"
         id="use5167" />
      <use
         xlink:href="#f0_n"
         transform="matrix(48,0,0,48,1916.9,1932)"
         id="use5169" />
    </g>
  </g>
  <g
     clip-path="url(#c0_1)"
     id="g5187">
    <g
       fill="#FFFFFF"
       id="g5185">
      <use
         xlink:href="#f0_l"
         transform="matrix(48,0,0,48,1940.8,1932)"
         id="use5177" />
      <use
         xlink:href="#f0_c"
         transform="matrix(48,0,0,48,1967.9,1932)"
         id="use5179" />
      <use
         xlink:href="#f0_m"
         transform="matrix(48,0,0,48,2002,1932)"
         id="use5181" />
      <use
         xlink:href="#f0_3"
         transform="matrix(48,0,0,48,2029.5,1932)"
         id="use5183" />
    </g>
  </g>
  <g
     clip-path="url(#c0_1)"
     id="g5205">
    <g
       fill="#FFFFFF"
       id="g5203">
      <use
         xlink:href="#f0_k"
         transform="matrix(48.2,0,0,48,2066.2,1932)"
         id="use5191" />
      <use
         xlink:href="#f0_o"
         transform="matrix(48.2,0,0,48,2104.9,1932)"
         id="use5193" />
      <use
         xlink:href="#f0_9"
         transform="matrix(48.2,0,0,48,2146.1,1932)"
         id="use5195" />
      <use
         xlink:href="#f0_l"
         transform="matrix(48.2,0,0,48,2182.2,1932)"
         id="use5197" />
      <use
         xlink:href="#f0_o"
         transform="matrix(48.2,0,0,48,2209.5,1932)"
         id="use5199" />
      <use
         xlink:href="#f0_g"
         transform="matrix(48.2,0,0,48,2250.7,1932)"
         id="use5201" />
    </g>
  </g>
  <g
     clip-path="url(#c0_1)"
     id="g5239">
    <g
       fill="#FFFFFF"
       id="g5233">
      <use
         xlink:href="#f0_o"
         transform="matrix(48,0,0,48,2333.8,1932)"
         id="use5209" />
      <use
         xlink:href="#f0_h"
         transform="matrix(48,0,0,48,2374.9,1932)"
         id="use5211" />
      <use
         xlink:href="#f0_9"
         transform="matrix(48,0,0,48,2418.5,1932)"
         id="use5213" />
      <use
         xlink:href="#f0_g"
         transform="matrix(48,0,0,48,2454.5,1932)"
         id="use5215" />
      <use
         xlink:href="#f0_e"
         transform="matrix(48,0,0,48,2537.3,1932)"
         id="use5217" />
      <use
         xlink:href="#f0_h"
         transform="matrix(48,0,0,48,2559.3,1932)"
         id="use5219" />
      <use
         xlink:href="#f0_a"
         transform="matrix(48,0,0,48,2603,1932)"
         id="use5221" />
      <use
         xlink:href="#f0_i"
         transform="matrix(48,0,0,48,2636,1932)"
         id="use5223" />
      <use
         xlink:href="#f0_f"
         transform="matrix(48,0,0,48,2673.4,1932)"
         id="use5225" />
      <use
         xlink:href="#f0_o"
         transform="matrix(48,0,0,48,2695.4,1932)"
         id="use5227" />
      <use
         xlink:href="#f0_h"
         transform="matrix(48,0,0,48,2736.4,1932)"
         id="use5229" />
      <use
         xlink:href="#f0_n"
         transform="matrix(48,0,0,48,2780.1,1932)"
         id="use5231" />
    </g>
    <g
       fill="none"
       stroke-width="30.555559158325195"
       stroke="#3C3C3C"
       stroke-opacity="0.764706"
       id="g5237">
      <use
         xlink:href="#f1_g"
         transform="matrix(12,0,0,12,1554.3,26)"
         id="use5235" />
    </g>
  </g>
  <g
     clip-path="url(#c0_1)"
     id="g5301">
    <g
       fill="none"
       stroke-width="30.555559158325195"
       stroke="#3C3C3C"
       stroke-opacity="0.764706"
       id="g5299">
      <use
         xlink:href="#f1_6"
         transform="matrix(12,0,0,12,1565.5,26)"
         id="use5243" />
      <use
         xlink:href="#f1_4"
         transform="matrix(12,0,0,12,1576.7,26)"
         id="use5245" />
      <use
         xlink:href="#f1_e"
         transform="matrix(12,0,0,12,1589.9,26)"
         id="use5247" />
      <use
         xlink:href="#f1_b"
         transform="matrix(12,0,0,12,1600.5,26)"
         id="use5249" />
      <use
         xlink:href="#f1_c"
         transform="matrix(12,0,0,12,1614.4,26)"
         id="use5251" />
      <use
         xlink:href="#f1_h"
         transform="matrix(12,0,0,12,1627,26)"
         id="use5253" />
      <use
         xlink:href="#f1_b"
         transform="matrix(12,0,0,12,1643.9,26)"
         id="use5255" />
      <use
         xlink:href="#f1_c"
         transform="matrix(12,0,0,12,1657.9,26)"
         id="use5257" />
      <use
         xlink:href="#f1_8"
         transform="matrix(12,0,0,12,1670.4,26)"
         id="use5259" />
      <use
         xlink:href="#f1_d"
         transform="matrix(12,0,0,12,1682.7,26)"
         id="use5261" />
      <use
         xlink:href="#f1_6"
         transform="matrix(12,0,0,12,1699.6,26)"
         id="use5263" />
      <use
         xlink:href="#f1_5"
         transform="matrix(12,0,0,12,1710.8,26)"
         id="use5265" />
      <use
         xlink:href="#f1_f"
         transform="matrix(12,0,0,12,1723.7,26)"
         id="use5267" />
      <use
         xlink:href="#f1_4"
         transform="matrix(12,0,0,12,1737,26)"
         id="use5269" />
      <use
         xlink:href="#f1_3"
         transform="matrix(12,0,0,12,1750.2,26)"
         id="use5271" />
      <use
         xlink:href="#f1_e"
         transform="matrix(12,0,0,12,1762.1,26)"
         id="use5273" />
      <use
         xlink:href="#f1_7"
         transform="matrix(12,0,0,12,1772.6,26)"
         id="use5275" />
      <use
         xlink:href="#f1_b"
         transform="matrix(12,0,0,12,1777.4,26)"
         id="use5277" />
      <use
         xlink:href="#f1_a"
         transform="matrix(12,0,0,12,1791.3,26)"
         id="use5279" />
      <use
         xlink:href="#f1_3"
         transform="matrix(12,0,0,12,1804.5,26)"
         id="use5281" />
      <use
         xlink:href="#f1_9"
         transform="matrix(12,0,0,12,1816.4,26)"
         id="use5283" />
      <use
         xlink:href="#f1_g"
         transform="matrix(12,0,0,12,1831.7,26)"
         id="use5285" />
      <use
         xlink:href="#f1_6"
         transform="matrix(12,0,0,12,1842.9,26)"
         id="use5287" />
      <use
         xlink:href="#f1_c"
         transform="matrix(12,0,0,12,1854.1,26)"
         id="use5289" />
      <use
         xlink:href="#f1_d"
         transform="matrix(12,0,0,12,1866.7,26)"
         id="use5291" />
      <use
         xlink:href="#f1_7"
         transform="matrix(12,0,0,12,1878.5,26)"
         id="use5293" />
      <use
         xlink:href="#f1_b"
         transform="matrix(12,0,0,12,1883.3,26)"
         id="use5295" />
      <use
         xlink:href="#f1_a"
         transform="matrix(12,0,0,12,1897.2,26)"
         id="use5297" />
    </g>
  </g>
  <defs
     id="defs5411">
    <path
       d="M594,-23C509,-23,431,-9,362,20C293,49,235,90,188,142C142,195,107,256,84,325C61,395,49,468,49,545c0,85,14,162,41,233c29,71,68,131,118,180c51,50,110,88,179,113c69,26,143,40,221,40c159,0,281,-21,367,-61L993,848H923l-5,37c-3,26,-13,51,-30,74c-18,24,-38,41,-61,52c-21,11,-51,19,-92,26c-41,7,-83,11,-127,11c-84,0,-156,-19,-214,-56C337,954,292,897,260,822C227,748,211,652,211,536c0,-66,11,-129,33,-189c24,-59,56,-111,97,-156C381,146,429,111,483,86C538,61,595,49,655,49c36,0,72,1,107,4c37,5,78,14,123,29V362c0,12,-4,22,-11,29c-7,7,-16,11,-28,11H733v67h294V18C903,-9,759,-23,594,-23Z"
       id="f0_8"
       transform="scale(0.001,-0.001)" />
    <path
       d="M319,63c13,0,27,2,45,7c17,6,36,16,56,29c21,15,39,30,55,48V350L342,315c-27,-7,-52,-19,-73,-35C248,264,232,246,223,226c-8,-20,-12,-40,-12,-58C211,98,247,63,319,63ZM234,-23c-51,0,-90,16,-118,47C90,57,76,98,76,147c0,112,71,186,213,221l186,48v82c0,51,-9,89,-27,113c-19,26,-52,38,-100,38c-37,0,-70,-6,-99,-20C222,616,201,598,188,574C175,552,166,529,160,506H101l17,143c33,22,72,40,117,54c46,14,92,21,139,21c82,0,141,-17,179,-52c38,-33,57,-91,57,-174V122c0,-36,18,-55,55,-55h61V26L490,-23C480,4,475,38,475,78C445,47,411,22,374,3C338,-14,291,-23,234,-23Z"
       id="f0_9"
       transform="scale(0.001,-0.001)" />
    <path
       d="M67,0V43l57,6c12,1,22,4,30,11c9,7,14,19,14,38V998c0,9,-3,17,-9,26c-5,8,-15,12,-29,12H61v49c29,0,68,2,118,7c50,6,86,13,110,19l12,-14V98c0,-13,3,-25,8,-34c6,-8,17,-13,35,-15l56,-6V0Z"
       id="f0_f"
       transform="scale(0.001,-0.001)" />
    <path
       d="M67,0V43l57,6c29,3,44,19,44,49V610c0,23,-12,35,-37,35H63v49c28,1,66,4,113,10c48,7,85,15,111,22l12,-14V98c0,-13,3,-25,10,-34c6,-8,17,-13,35,-15l56,-6V0ZM231,851c-23,0,-43,8,-60,24c-16,18,-24,38,-24,62c0,23,8,43,24,59c17,17,37,26,60,26c23,0,43,-9,59,-26c18,-16,26,-36,26,-59c0,-24,-8,-44,-26,-62C274,859,254,851,231,851Z"
       id="f0_e"
       transform="scale(0.001,-0.001)" />
    <path
       d="M472,440c12,0,22,3,31,9c9,7,13,18,13,34c0,20,-4,44,-13,72c-9,28,-23,51,-43,68c-19,19,-37,30,-54,34c-15,4,-28,6,-39,6c-54,0,-97,-18,-129,-53C207,575,188,518,182,440ZM367,-23C266,-23,186,8,128,72C71,136,43,229,43,351c0,54,8,104,24,150c18,47,41,87,72,121c31,33,66,59,107,76c42,19,86,28,133,28c163,0,252,-92,267,-275l2,-58c0,-14,-7,-20,-22,-20H182c1,-61,10,-114,27,-159c19,-45,45,-81,80,-109C324,79,368,66,419,66c25,0,55,6,90,18c34,13,65,31,93,52L633,75C597,47,554,24,503,5C453,-14,407,-23,367,-23Z"
       id="f0_c"
       transform="scale(0.001,-0.001)" />
    <path
       d="M286,-23c-40,0,-78,4,-115,12C135,-4,99,11,63,37V194h49C123,91,178,40,278,40c36,0,64,9,84,27c21,20,32,47,32,81c0,61,-30,108,-90,141L199,345C120,387,81,451,81,538c0,36,8,69,24,96c18,29,43,51,75,67c34,17,73,25,118,25c72,0,132,-10,179,-29L490,550H438c-1,29,-8,52,-22,72c-15,19,-33,32,-55,40c-22,7,-43,10,-63,10c-39,0,-68,-8,-87,-26C191,630,182,609,182,582c0,-39,27,-74,81,-105L385,406c40,-22,70,-52,90,-88c21,-36,31,-76,31,-121C506,153,496,114,477,78C458,42,431,16,396,0C361,-15,324,-23,286,-23Z"
       id="f0_m"
       transform="scale(0.001,-0.001)" />
    <path
       d="M307,-23C250,-23,207,-8,177,21C148,53,133,95,133,147V631H47v61h84V866H266V692H487V631H266V142c0,-26,6,-48,18,-66C296,59,313,50,335,50c46,0,92,20,136,58L504,66C474,39,440,17,403,0C368,-15,336,-23,307,-23Z"
       id="f0_n"
       transform="scale(0.001,-0.001)" />
    <path
       d="M402,37c43,0,78,13,107,39c28,27,49,62,62,106c15,45,22,91,22,140c0,33,-4,70,-12,110c-8,42,-20,80,-37,113c-16,35,-39,64,-67,86c-28,22,-61,34,-100,34c-42,0,-78,-13,-107,-39C242,602,221,568,206,526C193,483,186,437,186,388c0,-33,4,-70,13,-113c8,-42,20,-80,36,-116c17,-35,39,-64,68,-87C331,48,364,37,402,37ZM390,-23c-49,0,-96,9,-139,26C208,22,170,49,138,83C106,116,81,156,64,203C47,250,38,300,38,354c0,55,9,106,26,152c17,47,42,86,74,119c32,32,70,57,113,75c42,17,89,26,139,26c36,0,74,-6,114,-19c41,-11,81,-33,119,-65c40,-33,70,-75,89,-127c20,-52,31,-106,31,-161h-1c0,-39,-5,-78,-15,-116C717,202,702,168,683,137C665,107,642,80,616,58C590,36,558,16,519,0C482,-15,438,-23,390,-23Z"
       id="f0_i"
       transform="scale(0.001,-0.001)" />
    <path
       d="M966,0V43l55,6c30,4,45,20,45,49V483c0,46,-12,82,-38,110c-25,28,-58,43,-99,43c-33,0,-63,-8,-92,-22C810,601,779,578,746,544c3,-21,4,-42,4,-61V98c0,-13,3,-25,8,-34c6,-8,18,-13,35,-15l56,-6V0H516V43l57,6c30,3,46,19,46,49V483c0,46,-13,82,-40,110c-25,28,-59,43,-99,43c-24,0,-48,-5,-74,-14C381,613,346,587,303,544V98c0,-13,2,-25,7,-34c6,-8,18,-13,35,-15l57,-6V0H69V43l56,6c30,3,45,19,45,49V610c0,23,-13,35,-39,35H63v49c27,1,63,4,108,10c45,7,81,15,107,22l12,-14c6,-28,9,-63,9,-107c81,80,159,121,236,121c98,0,163,-45,197,-133c35,38,76,70,121,94c45,26,89,39,129,39c72,0,125,-22,161,-64c36,-43,55,-103,55,-179V98c0,-13,3,-25,9,-34c6,-8,18,-13,35,-15l55,-6V0Z"
       id="f0_g"
       transform="scale(0.001,-0.001)" />
    <path
       d="M516,0V43l57,6c30,3,46,19,46,49V480c0,46,-13,82,-40,110c-25,28,-59,42,-99,42c-25,0,-50,-4,-75,-13C379,610,345,584,303,542V98c0,-13,2,-25,7,-34c6,-8,18,-13,35,-15l57,-6V0H69V43l56,6c30,3,45,19,45,49V610c0,23,-13,35,-39,35H63v49c27,1,63,4,108,10c45,7,81,15,107,22l12,-14c6,-28,9,-65,9,-113c41,42,79,73,114,95c35,21,72,32,111,32c72,0,128,-23,167,-68c39,-43,59,-103,59,-178V98c0,-13,3,-25,8,-34c6,-8,18,-13,35,-15l56,-6V0Z"
       id="f0_h"
       transform="scale(0.001,-0.001)" />
    <path
       d="M388,55c54,0,100,22,138,66V591h1c-36,30,-75,45,-118,45c-35,0,-68,-8,-97,-23C283,597,259,576,238,548C219,521,204,490,194,455c-9,-34,-14,-67,-14,-99c0,-31,3,-63,9,-98c8,-33,21,-67,40,-101c20,-33,43,-59,72,-76C329,64,359,55,388,55ZM330,-23c-40,0,-77,8,-113,25C181,19,150,44,124,76C98,109,78,149,63,197C48,246,41,299,41,358c0,53,9,103,28,149c18,47,43,86,75,118c32,32,69,57,110,75c40,17,83,26,126,26c16,0,34,-2,55,-6c22,-3,52,-16,92,-37V998c0,9,-3,17,-9,26c-5,8,-15,12,-29,12H419v49l229,26l12,-14V124c0,-37,19,-55,57,-55h61V24L548,-23C538,1,533,30,532,61C469,4,401,-23,330,-23Z"
       id="f0_b"
       transform="scale(0.001,-0.001)" />
    <path
       d="M338,-20L95,619c-8,21,-24,33,-46,36l-23,3v43H338V658l-31,-3c-12,-2,-23,-7,-32,-16c-8,-9,-12,-18,-12,-29c0,-25,4,-51,14,-78L416,141L558,532c9,27,13,53,13,78c0,11,-4,21,-13,30c-9,9,-18,14,-29,15l-32,3v43H744V657l-27,-5c-15,-2,-28,-8,-40,-18C665,624,652,603,640,571L411,-20Z"
       id="f0_p"
       transform="scale(0.001,-0.001)" />
    <path
       d="M391,57c28,0,55,5,81,15c27,11,50,30,70,56c21,27,37,60,48,101c12,42,18,91,18,148c0,30,-6,61,-17,94c-10,33,-24,63,-43,88c-17,26,-39,46,-65,61c-27,17,-55,25,-84,25c-21,0,-41,-4,-61,-11c-20,-6,-45,-25,-77,-57V113C304,75,347,57,391,57ZM28,-358v43l56,6c29,2,43,18,43,49V610c0,23,-12,35,-37,35H21v49c28,1,63,4,106,10c43,7,78,15,105,22l12,-14c6,-18,10,-42,13,-72c57,57,123,86,200,86c32,0,66,-6,101,-19c34,-11,68,-33,100,-65c33,-32,58,-72,74,-121c16,-48,24,-96,24,-145c0,-61,-8,-117,-24,-168C716,158,693,116,663,81C634,46,598,20,556,2C515,-15,472,-23,425,-23C373,-23,318,-9,261,20V-260c0,-13,3,-24,8,-32c6,-10,18,-15,35,-17l55,-6v-43Z"
       id="f0_j"
       transform="scale(0.001,-0.001)" />
    <path
       d="M67,0V43l57,6c29,3,44,19,44,47V610c0,23,-13,35,-38,35H61v49c29,1,65,4,110,10c46,7,82,15,109,22l12,-14c5,-22,7,-63,7,-121c21,40,47,72,78,96c33,26,65,39,97,39c40,0,71,-10,91,-31V530H500c0,30,-7,52,-20,67c-12,17,-29,25,-51,25C375,622,333,588,301,519V99c0,-13,3,-24,9,-32c6,-8,17,-13,34,-15l72,-9V0Z"
       id="f0_l"
       transform="scale(0.001,-0.001)" />
    <path
       d="M90,-170l-27,44c43,20,79,43,107,72c28,29,42,58,42,91c0,22,-9,37,-29,44c-22,9,-40,22,-53,38c-13,16,-20,35,-20,55c0,29,10,53,31,73c21,22,46,33,76,33c35,0,63,-13,85,-37c23,-25,34,-54,34,-87C336,96,319,40,286,-10C253,-62,188,-115,90,-170Z"
       id="f0_3"
       transform="scale(0.001,-0.001)" />
    <path
       d="M411,66c45,0,85,18,119,55V594c-36,31,-74,46,-116,46c-45,0,-86,-13,-122,-38C256,576,230,541,212,495C195,450,186,404,186,358c0,-52,10,-102,28,-149c18,-47,45,-82,81,-107C331,78,369,66,411,66Zm18,-424v43l57,6c29,3,44,19,44,49V57C509,36,483,18,454,2C424,-13,386,-20,338,-20c-31,0,-62,5,-95,16C210,7,177,29,144,61C111,94,86,136,69,189C52,243,44,299,44,358c0,57,9,108,26,155c19,47,44,86,75,116c32,32,67,55,107,71c41,16,83,24,127,24c51,0,103,-15,156,-44l9,44c78,-8,151,-13,218,-15V652H701c-25,0,-38,-13,-38,-39V-260c0,-13,3,-24,8,-32c6,-9,18,-15,35,-17l55,-6v-43Z"
       id="f0_k"
       transform="scale(0.001,-0.001)" />
    <path
       d="M359,-23C286,-23,230,-5,193,32c-38,39,-57,95,-57,170V610c0,25,-12,39,-37,41l-53,6v44H267V202c0,-45,13,-79,39,-103C331,76,365,64,406,64c24,0,48,5,74,14c25,9,60,35,104,78V610c0,25,-12,39,-36,41l-53,6v44H717V124c0,-37,19,-55,58,-55h59V24L607,-23c-6,10,-10,26,-14,49c-3,24,-5,45,-6,63C513,13,437,-23,359,-23Z"
       id="f0_o"
       transform="scale(0.001,-0.001)" />
    <path
       d="M365,-23C264,-23,185,8,127,72C70,136,41,229,41,351c0,54,9,104,26,150c19,47,44,87,75,121c32,33,68,59,110,76c43,19,88,28,135,28c92,0,164,-10,215,-31L622,526H556c-1,20,-5,40,-14,59c-8,19,-18,34,-30,44c-12,11,-31,19,-55,25c-24,6,-48,9,-72,9c-19,0,-40,-5,-63,-14c-21,-8,-42,-23,-64,-46C237,581,218,550,203,510C188,472,180,425,180,370c0,-59,9,-111,28,-156c18,-44,45,-80,81,-109C325,78,369,64,420,64c25,0,54,7,87,20c35,13,66,31,93,52L631,75C595,47,552,24,501,5C451,-14,406,-23,365,-23Z"
       id="f0_a"
       transform="scale(0.001,-0.001)" />
    <path
       d="M519,52c24,0,48,5,74,14c25,10,49,26,72,49c22,23,41,53,56,88c15,36,23,76,23,121c0,36,-7,73,-21,113c-15,40,-41,73,-78,101c-37,28,-79,43,-127,43H339V96c0,-29,15,-44,44,-44ZM493,640c32,0,62,7,91,22c28,15,51,40,67,76c17,36,26,71,26,107c0,36,-9,69,-26,101c-16,32,-39,55,-69,68c-28,15,-58,22,-89,22l-106,1c-14,0,-25,-4,-34,-13c-9,-10,-14,-20,-14,-32V640ZM78,0V43l70,6c14,1,26,4,34,11c8,6,12,17,12,33V992c0,12,-3,22,-9,30c-5,8,-17,13,-37,15l-70,6v42H545c190,0,285,-82,285,-246c0,-28,-8,-57,-23,-87C791,721,772,696,749,675C726,655,705,640,686,629C746,616,796,581,837,524c42,-57,63,-125,63,-205C900,219,869,141,807,84C746,28,659,0,547,0Z"
       id="f0_6"
       transform="scale(0.001,-0.001)" />
    <path
       d="M353,-259c54,0,102,16,145,46c44,31,66,71,66,122c0,38,-18,67,-52,87C477,16,430,31,371,40c-38,6,-71,10,-96,12C245,37,220,13,199,-19C178,-51,168,-87,168,-126c0,-28,8,-52,25,-72c16,-19,38,-34,67,-44c29,-11,60,-17,93,-17ZM342,354c21,0,43,5,67,14c25,9,45,26,62,51c16,24,24,52,24,84c0,30,-8,59,-23,87c-15,27,-35,47,-58,58c-23,11,-46,17,-67,17c-45,0,-82,-15,-112,-43C207,594,193,559,193,516c0,-31,7,-61,22,-88c16,-27,35,-46,58,-57c25,-11,48,-17,69,-17Zm20,-678c-111,0,-195,16,-254,48c-57,32,-85,80,-85,144c0,21,6,45,18,72c12,26,33,52,63,75c30,25,65,45,104,60C136,100,101,138,101,188c0,18,13,37,38,56c27,21,62,40,107,57c-55,16,-98,42,-128,78C87,415,72,457,72,507c0,45,11,85,33,119c24,35,57,60,100,75c44,17,89,25,137,25c25,0,55,-3,92,-8c38,-4,65,-10,82,-17H704V640H579c14,-19,25,-42,32,-67c8,-26,12,-49,12,-70c0,-45,-14,-84,-42,-116C553,355,519,333,480,321C441,309,406,303,374,303c-14,0,-32,-4,-55,-10c-22,-6,-43,-15,-62,-29C238,251,229,237,229,223c0,-17,7,-32,20,-44c13,-11,30,-18,50,-20L416,144C511,131,583,106,631,67c49,-37,73,-86,73,-147c0,-25,-6,-52,-18,-79c-12,-29,-33,-55,-63,-80c-28,-24,-65,-45,-110,-61c-44,-16,-95,-24,-151,-24Z"
       id="f0_d"
       transform="scale(0.001,-0.001)" />
    <path
       d="M665,480L506,946L341,480ZM695,0V43l44,6c18,2,30,8,37,18c8,10,12,23,12,37c0,12,-2,26,-7,41L692,402H313L214,127c-5,-15,-8,-28,-8,-37c0,-11,4,-20,12,-27c10,-7,19,-12,29,-13l71,-6V0H18V43l42,4c8,1,16,4,26,10c9,6,15,13,18,22l389,997l98,29L962,104c6,-14,14,-27,25,-38c12,-10,23,-17,34,-19l24,-3V0Z"
       id="f0_5"
       transform="scale(0.001,-0.001)" />
    <path
       d="M616,-23C526,-23,445,-9,373,20C301,49,242,90,194,142C146,195,110,256,86,325C61,395,49,468,49,545c0,81,13,156,40,225c27,70,65,130,114,180c50,51,109,90,176,118c68,27,141,41,220,41c145,0,265,-18,360,-55L978,852H908l-5,37c-3,27,-13,52,-31,75c-17,23,-37,41,-61,52c-40,21,-110,32,-209,32c-50,0,-99,-9,-147,-27C407,1003,365,974,328,932C293,890,264,836,243,770C222,705,211,627,211,536c0,-68,12,-133,37,-195C273,280,308,227,353,182C398,137,450,102,509,76C569,52,631,40,695,40c67,0,117,11,150,35c32,24,54,59,64,105l6,26h63L947,0C885,-15,775,-23,616,-23Z"
       id="f0_7"
       transform="scale(0.001,-0.001)" />
    <path
       d="M241,-23c-28,0,-53,10,-74,29C145,28,134,52,134,81c0,30,11,54,33,75c21,21,46,32,74,32c29,0,53,-11,74,-32c21,-21,32,-45,32,-75C347,52,336,28,315,6C294,-13,270,-23,241,-23ZM199,284c0,146,38,258,114,336c55,56,94,104,118,144c23,40,35,80,35,121c0,48,-14,89,-41,120c-28,33,-66,49,-116,49c-28,0,-54,-5,-80,-15c-24,-9,-45,-24,-61,-44C152,975,141,956,136,937L122,878H52l17,161c35,20,76,37,122,50c47,15,91,22,133,22c90,0,159,-18,209,-54c50,-34,75,-92,75,-174c0,-47,-12,-88,-35,-122C549,726,523,696,492,671C461,645,427,618,390,590C315,534,278,432,278,284Z"
       id="f0_4"
       transform="scale(0.001,-0.001)" />
    <path
       d="M383,0L0,1091H156L468,145h3l314,946H937L548,0Z"
       id="f1_g"
       transform="scale(0.001,-0.001)" />
    <path
       d="M119,0V1091H872V969H264V622H831V500H264V122H877V0Z"
       id="f1_6"
       transform="scale(0.001,-0.001)" />
    <path
       d="M570,-23C485,-23,411,-9,348,18C285,48,233,88,191,139C149,190,118,250,96,319C76,389,66,463,66,542c0,80,11,154,33,223c23,71,55,132,98,184c44,52,98,92,162,122c65,31,140,46,223,46c57,0,111,-8,162,-23c51,-15,96,-38,136,-67c40,-30,73,-67,99,-112c27,-44,44,-95,52,-153H886C870,840,834,898,778,937c-55,38,-121,58,-197,58C515,995,459,982,413,958C367,933,328,900,298,859C268,818,246,771,232,718C218,665,211,610,211,553c0,-62,7,-121,21,-177c14,-55,36,-104,66,-145c30,-41,69,-74,116,-98C461,108,517,96,582,96c48,0,90,8,127,23c38,16,70,38,96,66c28,28,49,62,64,101c16,38,25,80,28,125h145C1028,273,980,167,900,90C819,14,709,-23,570,-23Z"
       id="f1_4"
       transform="scale(0.001,-0.001)" />
    <path
       d="M367,0V969H3v122H875V969H512V0Z"
       id="f1_e"
       transform="scale(0.001,-0.001)" />
    <path
       d="M581,96c66,0,123,13,171,38c48,27,87,62,117,104c31,43,53,91,68,144c14,54,21,108,21,163c0,55,-7,109,-21,162c-15,54,-37,103,-68,146c-30,42,-69,76,-117,102c-48,26,-105,40,-171,40C514,995,457,981,409,955C362,929,322,895,292,853C261,810,239,761,225,707C210,654,203,600,203,545c0,-55,7,-109,22,-163c14,-53,36,-101,67,-144c30,-42,70,-77,117,-104C457,109,514,96,581,96Zm0,-119C494,-23,418,-8,353,21C288,53,233,95,189,148C146,201,113,262,90,330C69,399,58,471,58,545c0,75,11,146,32,214c23,70,56,131,99,184c44,53,99,95,164,126c65,32,141,48,228,48c86,0,162,-16,227,-48c65,-31,120,-73,164,-126c43,-53,76,-114,97,-184c23,-68,34,-139,34,-214c0,-74,-11,-146,-34,-215C1048,262,1015,201,972,148C928,95,873,53,808,21C743,-8,667,-23,581,-23Z"
       id="f1_b"
       transform="scale(0.001,-0.001)" />
    <path
       d="M567,588v0c33,0,66,3,96,8c31,5,57,15,80,29c23,15,41,35,55,59c14,26,21,58,21,98c0,55,-15,100,-46,135c-30,34,-80,52,-148,52H264V588ZM119,0V1091H633c103,0,184,-26,242,-77c59,-50,89,-120,89,-209C964,739,949,681,918,631C889,581,841,547,775,529v-3c31,-7,57,-17,76,-31c20,-14,36,-32,47,-52c13,-19,21,-41,26,-66c6,-24,11,-50,14,-76c2,-27,4,-53,5,-81c1,-27,3,-54,7,-81c4,-26,10,-52,17,-76c8,-24,20,-45,35,-63H840C830,11,823,26,819,46c-3,19,-5,41,-6,64c-1,24,-2,50,-3,78c-1,27,-4,54,-9,81c-5,26,-10,51,-16,75c-6,24,-16,45,-29,62c-13,19,-30,33,-52,43c-21,11,-50,17,-85,17H264V0Z"
       id="f1_c"
       transform="scale(0.001,-0.001)" />
    <path
       d="M298,0L18,1091H167L380,183h3l245,908H785L1027,183h3l221,908h145L1105,0H953L704,917h-3L449,0Z"
       id="f1_h"
       transform="scale(0.001,-0.001)" />
    <path
       d="M119,0V1091H264V547l553,544h188L545,651L1024,0H840L446,552L264,382V0Z"
       id="f1_8"
       transform="scale(0.001,-0.001)" />
    <path
       d="M750,772v0ZM507,-23c-61,0,-119,7,-174,22C279,14,231,37,189,67C149,99,116,139,92,186C68,235,57,293,57,359H194c0,-46,9,-86,26,-119c18,-33,42,-60,70,-81c30,-21,64,-37,103,-47C431,101,471,96,512,96c32,0,65,3,98,9c33,7,63,17,90,31c26,15,48,36,64,61c16,26,24,58,24,98c0,38,-10,68,-30,92c-20,23,-46,42,-80,56c-32,15,-69,28,-111,37c-42,9,-85,18,-129,27c-42,10,-85,22,-126,34c-42,13,-80,30,-113,50c-33,22,-59,49,-80,81C100,706,90,748,90,798c0,55,11,102,34,142c22,40,52,73,88,99c38,26,80,46,127,58c48,13,97,20,147,20c56,0,108,-7,156,-20c48,-13,89,-34,125,-63c37,-28,65,-64,86,-108c21,-43,33,-94,35,-154H750c-8,78,-37,134,-85,169c-48,36,-110,54,-185,54c-31,0,-61,-3,-90,-10c-30,-6,-56,-16,-80,-30C288,941,269,921,255,897C242,873,235,844,235,808c0,-33,10,-61,29,-82c21,-21,47,-37,80,-51c33,-13,71,-24,113,-33c42,-8,84,-18,127,-28c43,-10,86,-22,128,-36c42,-14,79,-32,111,-55c34,-24,61,-53,80,-89c20,-36,30,-81,30,-135C933,241,920,191,894,150C868,109,835,75,794,49C754,23,708,5,657,-5C607,-17,557,-23,507,-23Z"
       id="f1_d"
       transform="scale(0.001,-0.001)" />
    <path
       d="M264,122H506c16,0,36,1,61,3c24,3,50,9,78,19c27,10,54,24,81,42c27,19,52,44,73,75c21,32,39,71,52,118c14,48,21,105,21,173c0,65,-6,123,-19,174c-13,52,-34,95,-63,131c-29,37,-66,64,-112,83c-45,19,-102,29,-169,29H264V122ZM119,0V1091H493c169,0,298,-43,389,-128c90,-86,135,-216,135,-392c0,-91,-10,-173,-30,-244C967,257,935,197,892,148C849,100,795,64,729,38C663,13,584,0,493,0Z"
       id="f1_5"
       transform="scale(0.001,-0.001)" />
    <path
       d="M561,-23C420,-23,310,9,231,75C152,142,113,249,113,394v697H258V394c0,-98,26,-172,78,-223C388,121,463,96,561,96c92,0,163,25,211,75c48,51,73,125,73,223v697H990V394C990,255,953,150,878,79C804,10,698,-23,561,-23Z"
       id="f1_f"
       transform="scale(0.001,-0.001)" />
    <path
       d="M677,451L495,959h-3L307,451ZM-8,0L416,1091H576L1002,0H842L723,328H261L139,0Z"
       id="f1_3"
       transform="scale(0.001,-0.001)" />
    <path
       d="M125,0V1091H270V0Z"
       id="f1_7"
       transform="scale(0.001,-0.001)" />
    <path
       d="M118,0V1091H272L846,206h3v885H987V0H828L258,875h-3V0Z"
       id="f1_a"
       transform="scale(0.001,-0.001)" />
    <path
       d="M119,0V1091H264V122H842V0Z"
       id="f1_9"
       transform="scale(0.001,-0.001)" />
  </defs>
  <!-- Any embedded fonts defined here -->
  <style
     type="text/css"
     id="style5413"><![CDATA[

@font-face {
	font-family: PressroomW03-Regular_i;
	src: url("fonts/PressroomW03-Regular_i.woff") format("woff");
}

@font-face {
	font-family: HelveticaNeue_r;
	src: url("fonts/HelveticaNeue_r.woff") format("woff");
}

]]></style>
</svg>
